<svg xmlns="http://www.w3.org/2000/svg" xmlns:xlink="http://www.w3.org/1999/xlink" viewBox="0 0 1200 720" role="img" aria-labelledby="title description">
  <title id="title">Schema Prism logo concept for miniproto</title>
  <desc id="description">Three colored source faces reconcile inside an asymmetric protocol prism that emits one rounded constructor tile, shown as color, monochrome, light, dark, and small-size vector treatments.</desc>
  <defs>
    <linearGradient id="prism-violet" x1="0" y1="0" x2="1" y2="1"><stop stop-color="#B77AFF"/><stop offset="1" stop-color="#8B55F5"/></linearGradient>
    <linearGradient id="prism-aqua" x1="0" y1="0" x2="1" y2="1"><stop stop-color="#58E6E2"/><stop offset="1" stop-color="#23C8D1"/></linearGradient>
    <linearGradient id="prism-blue" x1="0" y1="0" x2="1" y2="1"><stop stop-color="#264BFF"/><stop offset="1" stop-color="#1234DA"/></linearGradient>
    <g id="wordmark" fill="none" stroke="currentColor" stroke-width="11" stroke-linecap="round" stroke-linejoin="round"><path d="M4 60V28c0-9 6-15 14-15s14 6 14 15v32M32 28c0-9 6-15 14-15s14 6 14 15v32M80 22v38M80 5h.01M100 60V28c0-9 6-15 16-15s16 6 16 15v32M152 22v38M152 5h.01M172 78V13m0 17c0-10 7-17 16-17 11 0 18 9 18 23s-7 24-18 24c-9 0-16-7-16-17M226 60V30c0-10 7-17 17-17m-17 15c4-9 11-15 20-15M280 13c-13 0-22 10-22 23s9 24 22 24 22-11 22-24-9-23-22-23ZM330 2v44c0 10 5 15 14 15M318 18h27M382 13c-13 0-22 10-22 23s9 24 22 24 22-11 22-24-9-23-22-23Z"/></g>
    <g id="mark-color" stroke-linejoin="round"><path d="M16 48 72 8 75 64Z" fill="url(#prism-violet)"/><path d="M72 8 128 50 75 64Z" fill="url(#prism-aqua)"/><path d="M16 48 75 64 66 119Z" fill="url(#prism-blue)"/><path d="M75 64 128 50 101 94 66 119Z" fill="#0B1B58"/><rect x="99" y="81" width="46" height="39" rx="11" fill="#FFF4D6" transform="rotate(-12 122 100.5)"/></g>
    <g id="mark-mono" fill="none" stroke="currentColor" stroke-width="8" stroke-linecap="round" stroke-linejoin="round"><path d="M16 48 72 8 128 50 101 94 66 119Z"/><path d="M16 48 75 64 72 8M75 64 128 50M75 64 66 119"/><rect x="99" y="81" width="46" height="39" rx="11" fill="currentColor" stroke="none" transform="rotate(-12 122 100.5)"/></g>
  </defs>
  <rect width="1200" height="720" rx="30" fill="#EEEAF7"/><rect x="24" y="24" width="564" height="300" rx="22" fill="#FCFAFF" stroke="#D7D0E8"/><rect x="612" y="24" width="564" height="300" rx="22" fill="#09132D"/><rect x="24" y="348" width="564" height="348" rx="22" fill="#FFFFFF" stroke="#D7D0E8"/><rect x="612" y="348" width="564" height="348" rx="22" fill="#101A38"/>
  <use href="#mark-color" xlink:href="#mark-color" transform="translate(67 90) scale(1.16)"/><use href="#wordmark" xlink:href="#wordmark" transform="translate(244 126) scale(.74)" style="color:#09132D"/><use href="#mark-color" xlink:href="#mark-color" transform="translate(655 90) scale(1.16)"/><use href="#wordmark" xlink:href="#wordmark" transform="translate(832 126) scale(.74)" style="color:#FBF9FF"/>
  <use href="#mark-color" xlink:href="#mark-color" transform="translate(77 407) scale(1.48)"/><use href="#wordmark" xlink:href="#wordmark" transform="translate(288 446) scale(.62)" style="color:#09132D"/><use href="#mark-mono" xlink:href="#mark-mono" transform="translate(91 585) scale(.68)" style="color:#151B2C"/>
  <use href="#mark-mono" xlink:href="#mark-mono" transform="translate(659 402) scale(1.12)" style="color:#FFFFFF"/><use href="#wordmark" xlink:href="#wordmark" transform="translate(824 438) scale(.66)" style="color:#FFFFFF"/>
  <g transform="translate(690 585)"><rect width="82" height="82" rx="18" fill="#FCFAFF"/><use href="#mark-color" xlink:href="#mark-color" transform="translate(5 9) scale(.5)"/></g><g transform="translate(814 598)"><rect width="58" height="58" rx="14" fill="#FCFAFF"/><use href="#mark-color" xlink:href="#mark-color" transform="translate(6 9) scale(.31)"/></g><g transform="translate(914 611)"><rect width="36" height="36" rx="9" fill="#FCFAFF"/><use href="#mark-color" xlink:href="#mark-color" transform="translate(6 9) scale(.17)"/></g>
</svg>
